<?xml version="1.0" encoding="UTF-8"?>
<svg id="Capa_1" xmlns="http://www.w3.org/2000/svg" version="1.1" viewBox="0 0 963 237">
  <!-- Generator: Adobe Illustrator 29.2.1, SVG Export Plug-In . SVG Version: 2.1.0 Build 116)  -->
  <defs>
    <style>
      .st0 {
        fill: #ff0024;
      }

      .st1 {
        fill: #fff;
      }
    </style>
  </defs>
  <g>
    <path class="st0" d="M371.4,21.9l-108.2,155.8c-2.9,4.1-9,4.1-11.9,0l-22.7-33.2c-1.7-2.5-1.7-5.7,0-8.2L313.8,13.7c1.3-1.9,3.6-3.1,5.9-3.1h45.8c5.8,0,9.2,6.5,5.9,11.3Z"/>
    <path class="st1" d="M147.5,10.6h91.4c5.9,0,9.3,7.1,5.9,12.2l-45.5,69.1c-2.8,4.2-9,4.2-11.7,0l-45.9-69.1c-3.4-5.1,0-12.2,5.9-12.2Z"/>
    <path class="st1" d="M73.1,13.7l81.8,118.1c2.8,4.1,8.9,4.1,11.8.1l19.8-27.5c2.9-4,8.9-4,11.8,0l22.1,31.7c1.7,2.5,1.7,5.7,0,8.2l-53.3,77.8c-2.8,4.2-9,4.2-11.9,0L15.9,21.9c-3.3-4.8,0-11.3,5.9-11.3h45.4c2.4,0,4.6,1.2,5.9,3.1Z"/>
  </g>
  <g>
    <path class="st1" d="M575.7,62.8l-33.5,77.4h-1.7l-24.3-45.1-24.5,45.2h-1.6l-33.1-77.5h18.3l17.5,42.4,22.8-42.4h1.1l22.8,42.6,17.9-42.6h18.3Z"/>
    <path class="st1" d="M611.8,140.1l45.9-77.4h1.7l45.9,77.4h-18.6l-7-12.2h-42.3l-6.9,12.2h-18.6,0ZM645.6,115.1h25.6l-12.8-23.4-12.9,23.4h0Z"/>
    <path class="st1" d="M823,62.8l-42.7,77.4h-1l-42.5-77.4h18.9l24.2,44.9,24.2-44.9h19,0Z"/>
    <path class="st1" d="M897.2,75.8v19.4h43.4v13.4h-43.4v18.2h48.9v13.3h-66.1V62.7h66.1v13.1h-48.9Z"/>
  </g>
  <g>
    <path class="st1" d="M796,208.6l10.1-49h36.7l-2.5,11.8h-21.3l-1.4,7h18.6l-2.2,10.9h-18.6l-1.6,7.4h21.7l-2.5,11.8h-37Z"/>
    <path class="st1" d="M893.5,172.1c.2,4-.8,7.6-3.2,10.8-2.4,3.2-5.8,5.5-10.2,7l9.7,18.7h-15.9l-8.2-17.1h-2.3l-3.6,17.1h-15.4l10.2-49h21.2c5.3,0,9.5,1.1,12.7,3.4s4.9,5.3,5.1,9.1h0ZM867.6,170.9l-2.1,10.1h5.3c2.4,0,4.3-.6,5.8-1.9s2.1-2.8,2-4.4c0-1.2-.6-2.1-1.6-2.8-1-.7-2.3-1-3.9-1h-5.6,0Z"/>
    <path class="st1" d="M900.1,208.6l10.2-49h21c5.3,0,9.6,1.1,12.8,3.3,3.2,2.2,4.9,5.2,5.2,9,.2,2.6-.3,5.1-1.4,7.5-1,2.4-2.6,4.6-4.7,6.5s-4.7,3.5-7.9,4.7-6.8,1.8-10.7,1.8h-5.8l-3.4,16.2h-15.4,0ZM921.2,181.1h4.9c1.5,0,2.8-.2,4-.7,1.1-.4,2-1,2.6-1.6s1-1.4,1.3-2,.4-1.4.3-2c0-1.2-.6-2.1-1.6-2.8s-2.5-1-4.3-1h-5.1l-2.1,10.2h0Z"/>
  </g>
</svg>