<?xml version="1.0" encoding="UTF-8"?>
<svg id="Capa_1" xmlns="http://www.w3.org/2000/svg" version="1.1" viewBox="0 0 1080 780">
  <!-- Generator: Adobe Illustrator 29.2.1, SVG Export Plug-In . SVG Version: 2.1.0 Build 116)  -->
  <defs>
    <style>
      .st0 {
        fill: #ff0024;
      }

      .st1 {
        fill: #fff;
      }
    </style>
  </defs>
  <path class="st0" d="M1003.6,139.5l-282.3,406.4c-7.5,10.8-23.5,10.7-30.9-.1l-59.2-86.6c-4.4-6.4-4.4-14.9,0-21.3l222.1-319.8c3.5-5.1,9.3-8.1,15.4-8.1h119.5c15.2,0,24.1,17,15.4,29.5Z"/>
  <path class="st1" d="M419.6,110h238.3c15.3,0,24.2,18.5,15.4,31.9l-118.6,180.4c-7.2,11-23.4,11-30.6,0l-119.7-180.3c-8.9-13.4,0-31.9,15.3-31.9Z"/>
  <path class="st1" d="M225.7,118.1l213.4,308c7.4,10.7,23.1,10.8,30.7.3l51.6-71.7c7.6-10.5,23.3-10.4,30.7.2l57.6,82.7c4.5,6.4,4.5,14.9,0,21.4l-139.1,202.9c-7.4,10.8-23.4,10.9-30.9.1L76.4,139.5c-8.7-12.5.2-29.5,15.4-29.5h118.4c6.2,0,11.9,3,15.4,8.1Z"/>
</svg>