<?xml version="1.0" encoding="UTF-8"?>
<svg id="Capa_1" xmlns="http://www.w3.org/2000/svg" version="1.1" viewBox="0 0 963 237">
  <!-- Generator: Adobe Illustrator 29.2.1, SVG Export Plug-In . SVG Version: 2.1.0 Build 116)  -->
  <defs>
    <style>
      .st0 {
        fill: #ff0024;
      }

      .st1 {
        fill: #fff;
      }
    </style>
  </defs>
  <g>
    <polygon class="st0" points="380.1 10 258.03 185.72 226.62 139.78 316.76 10 380.1 10"/>
    <polygon class="st1" points="135.34 10 254.64 10 195.26 94.07 135.34 10"/>
    <polygon class="st1" points="73.83 10 163.62 139.56 195.32 95.55 226.05 139.68 164.01 230.16 10.88 10 73.83 10"/>
  </g>
  <g>
    <path class="st1" d="M578.54,62.13l-33.48,77.38h-1.72l-24.28-45.09-24.52,45.2h-1.59l-33.11-77.48h18.27l17.54,42.45,22.81-42.45h1.1l22.81,42.55,17.9-42.55h18.27Z"/>
    <path class="st1" d="M614.59,139.51l45.86-77.38h1.72l45.86,77.38h-18.64l-6.99-12.17h-42.3l-6.87,12.17h-18.64,0ZM648.43,114.42h25.63l-12.75-23.39-12.87,23.39h-.01Z"/>
    <path class="st1" d="M825.86,62.13l-42.67,77.38h-.98l-42.55-77.38h18.88l24.16,44.88,24.15-44.88h19.01,0Z"/>
    <path class="st1" d="M900.04,75.15v19.37h43.41v13.44h-43.41v18.21h48.93v13.34h-66.09V62.03h66.09v13.12h-48.93Z"/>
  </g>
  <g>
    <path class="st1" d="M798.81,207.93l10.11-49h36.65l-2.45,11.84h-21.3l-1.38,6.96h18.59l-2.23,10.91h-18.62l-1.56,7.44h21.67l-2.45,11.84h-37.03Z"/>
    <path class="st1" d="M896.31,171.45c.25,3.98-.81,7.57-3.16,10.77-2.36,3.2-5.76,5.54-10.22,7.01l9.7,18.71h-15.91l-8.25-17.1h-2.3l-3.57,17.1h-15.43l10.15-49h21.19c5.28,0,9.51,1.13,12.69,3.39s4.89,5.3,5.11,9.13h0ZM870.4,170.23l-2.08,10.14h5.35c2.43,0,4.35-.64,5.78-1.93s2.09-2.76,1.99-4.43c-.07-1.18-.6-2.1-1.56-2.78-.97-.67-2.27-1.01-3.9-1.01h-5.58,0Z"/>
    <path class="st1" d="M902.92,207.93l10.15-49h21.04c5.35,0,9.63,1.1,12.82,3.29,3.2,2.19,4.92,5.19,5.17,9,.15,2.57-.3,5.07-1.36,7.49-1.05,2.43-2.6,4.61-4.65,6.55s-4.68,3.49-7.9,4.67-6.78,1.76-10.67,1.76h-5.84l-3.38,16.24h-15.39.01ZM924.03,180.43h4.87c1.51,0,2.84-.22,3.98-.66,1.14-.44,2.01-.99,2.62-1.65s1.05-1.35,1.32-2.05.39-1.39.34-2.05c-.08-1.18-.61-2.1-1.62-2.78s-2.45-1.01-4.33-1.01h-5.09l-2.08,10.2h0Z"/>
  </g>
</svg>